<?xml version="1.0" standalone="no"?>
<!DOCTYPE svg PUBLIC "-//W3C//DTD SVG 20010904//EN"
 "http://www.w3.org/TR/2001/REC-SVG-20010904/DTD/svg10.dtd">
<svg version="1.0" xmlns="http://www.w3.org/2000/svg"
 width="1320.000000pt" height="1000.000000pt" viewBox="0 0 1320.000000 1000.000000"
 preserveAspectRatio="xMidYMid meet">

<g transform="translate(0.000000,1000.000000) scale(0.100000,-0.100000)"
fill="#000000" stroke="none">
<path d="M6625 8493 c-465 -58 -852 -347 -1065 -796 -88 -184 -131 -347 -154
-579 l-13 -143 -124 -214 c-67 -118 -128 -231 -135 -250 -19 -52 -16 -110 7
-161 38 -84 92 -124 189 -139 97 -16 96 -14 102 -243 5 -159 9 -205 27 -259
54 -169 191 -299 362 -344 30 -8 99 -15 154 -15 168 0 264 -25 343 -88 l23
-18 -44 -45 c-77 -76 -87 -175 -26 -259 102 -141 325 -84 354 91 13 77 -37
168 -111 201 -28 12 -54 34 -74 63 -17 25 -54 61 -83 80 -84 57 -160 76 -337
85 -218 11 -302 46 -392 165 -64 85 -71 115 -77 352 l-6 211 -30 44 c-35 49
-102 88 -155 88 -73 0 -139 74 -125 139 3 15 61 124 129 243 68 118 128 231
135 249 6 19 16 87 21 151 35 429 231 810 533 1038 l59 44 62 -67 62 -67 527
0 528 0 53 50 c37 34 61 50 80 50 62 0 143 -56 177 -121 l19 -39 -124 0 -125
0 -90 -80 -91 -80 -98 0 -98 0 -38 46 c-23 27 -58 55 -84 66 -85 38 -192 4
-242 -76 l-22 -36 -78 0 c-73 0 -79 2 -85 23 -19 61 -118 137 -180 137 -71 0
-163 -61 -191 -128 -34 -81 -3 -182 73 -235 76 -54 182 -45 247 21 20 19 38
43 41 53 6 17 17 19 89 19 l84 0 5 -30 c9 -42 77 -106 129 -121 24 -6 48 -13
54 -14 11 -3 104 -260 104 -286 0 -8 -11 -24 -25 -37 -33 -32 -48 -84 -43
-149 5 -59 23 -90 81 -137 30 -24 49 -31 97 -34 79 -6 138 22 177 83 l28 44
317 1 317 0 25 -32 c68 -90 93 -242 57 -339 -23 -61 -99 -143 -143 -154 -12
-3 -79 -4 -147 -3 l-125 3 -37 85 c-21 47 -38 88 -38 93 -1 4 12 7 28 7 20 0
32 -6 36 -19 33 -105 201 -148 292 -75 95 75 108 208 30 292 -92 99 -264 74
-322 -46 l-20 -42 -82 0 c-77 0 -84 -2 -99 -25 -15 -24 -13 -30 51 -182 37
-87 74 -168 81 -180 13 -21 21 -23 167 -25 l152 -3 13 -40 c20 -61 0 -127 -53
-181 -57 -57 -94 -66 -248 -62 l-128 3 -149 343 c-82 189 -154 350 -161 358
-9 11 -54 14 -225 14 l-214 0 -25 39 c-34 55 -98 91 -161 91 -178 -1 -267
-198 -148 -330 46 -51 80 -63 159 -58 53 3 71 9 102 35 21 16 47 49 58 72 l20
41 180 0 180 0 149 -345 c83 -190 157 -352 166 -360 12 -11 41 -15 108 -15 51
0 92 -4 92 -9 0 -14 -77 -89 -108 -105 -17 -9 -47 -18 -69 -22 l-38 -6 -74
166 c-41 91 -82 173 -91 181 -9 8 -33 15 -52 15 -32 0 -39 5 -62 44 -31 53
-108 96 -170 96 -106 -1 -196 -94 -196 -205 0 -45 44 -126 82 -152 52 -35 115
-48 166 -34 50 14 114 68 132 111 7 17 17 29 22 28 5 -2 39 -70 76 -152 l66
-149 -33 -28 -34 -28 -25 30 c-87 104 -255 87 -322 -32 -16 -29 -22 -57 -22
-94 1 -114 80 -195 190 -195 94 0 159 46 190 132 12 36 25 54 47 65 17 8 46
31 66 49 27 26 48 37 91 44 112 18 208 87 269 194 26 48 36 56 67 62 88 16
175 83 219 169 20 39 26 66 27 120 1 39 -2 84 -7 100 -7 28 -4 33 34 62 57 44
114 122 135 185 36 109 16 261 -51 384 l-33 61 36 34 c96 91 108 258 26 371
-32 45 -33 50 -24 98 30 157 -73 318 -242 379 -17 7 -28 18 -28 29 0 10 -14
46 -30 80 -48 94 -128 156 -236 183 -35 9 -64 26 -101 61 -92 85 -243 143
-438 167 -85 10 -234 12 -300 4z m1070 -627 c65 -17 104 -38 137 -73 46 -48
70 -144 52 -210 -6 -21 -12 -23 -77 -23 l-71 0 -46 -50 c-62 -67 -85 -67 -125
3 -39 68 -116 111 -183 103 -164 -21 -239 -203 -134 -328 86 -101 257 -83 318
35 13 25 19 27 71 27 55 0 58 1 104 50 l47 50 65 0 c64 0 66 -1 87 -35 26 -42
29 -129 6 -173 -9 -17 -32 -44 -53 -61 l-38 -31 -316 0 -317 0 -23 46 c-26 55
-95 104 -146 104 -39 0 -39 0 -97 167 l-44 131 29 28 c16 15 34 43 41 61 l12
33 123 0 123 0 87 80 88 79 115 1 c65 0 137 -6 165 -14z"/>
<path d="M6331 7568 c-11 -29 -72 -53 -99 -39 -15 8 -24 5 -43 -15 -19 -21
-21 -28 -11 -44 15 -25 -9 -85 -38 -93 -28 -7 -30 -87 -2 -87 22 0 45 -58 37
-92 -8 -30 37 -77 57 -60 19 15 83 -7 94 -32 13 -31 80 -35 89 -6 9 27 64 51
88 38 28 -14 70 28 62 60 -9 36 13 92 36 92 16 0 19 7 19 41 0 30 -4 42 -17
45 -26 7 -53 75 -39 97 9 15 6 23 -18 43 -21 19 -31 22 -42 14 -18 -16 -78 6
-90 34 -6 14 -20 22 -42 24 -26 3 -34 -1 -41 -20z m115 -149 c78 -73 27 -199
-79 -199 -31 0 -46 7 -73 34 -28 28 -34 41 -34 78 0 24 7 54 16 67 37 53 125
63 170 20z"/>
<path d="M5943 7262 c-5 -20 -57 -44 -79 -35 -20 8 -46 -17 -41 -39 7 -24 -14
-78 -30 -78 -23 0 -27 -43 -6 -60 24 -19 38 -55 34 -87 -2 -24 28 -46 52 -38
21 8 67 -12 67 -30 0 -19 56 -21 67 -1 12 20 52 38 72 31 21 -6 57 28 46 45
-12 19 5 68 26 73 23 6 28 67 5 67 -16 0 -40 54 -33 74 8 20 -36 59 -50 45
-13 -13 -51 4 -71 33 -17 23 -52 23 -59 0z m72 -108 c19 -8 45 -55 45 -84 0
-33 -53 -80 -90 -80 -73 0 -111 104 -54 149 26 21 67 27 99 15z"/>
<path d="M5823 6860 c-6 -22 -61 -44 -87 -34 -26 10 -58 -25 -51 -55 7 -29
-12 -81 -30 -81 -29 0 -34 -69 -6 -77 25 -6 44 -53 36 -85 -8 -31 26 -61 60
-52 28 7 75 -12 75 -30 0 -30 69 -36 77 -7 6 23 56 46 79 37 25 -9 65 31 58
58 -7 29 12 76 30 76 30 0 36 69 7 77 -23 6 -46 56 -37 79 9 25 -31 65 -58 58
-29 -7 -76 12 -76 30 0 30 -69 36 -77 6z m98 -110 c27 -15 49 -63 49 -107 -1
-63 -46 -103 -118 -103 -51 0 -88 30 -102 80 -13 47 4 98 41 124 26 18 100 21
130 6z"/>
<path d="M6340 6411 c0 -13 -62 -20 -81 -8 -21 13 -48 3 -55 -20 -12 -39 -34
-68 -51 -68 -21 0 -43 -52 -27 -63 17 -11 22 -71 8 -83 -19 -16 3 -59 31 -59
24 0 69 -42 58 -54 -4 -4 -1 -11 7 -16 19 -12 60 -13 60 -1 0 15 66 18 79 3
11 -11 16 -11 34 1 12 8 22 21 22 28 0 22 29 56 50 60 23 5 45 56 29 67 -15
10 -26 72 -13 72 16 0 6 52 -11 60 -62 28 -75 38 -75 54 0 11 -9 23 -20 27
-28 11 -45 11 -45 0z m21 -114 c71 -54 38 -157 -50 -157 -87 0 -114 116 -36
158 26 15 66 14 86 -1z"/>
<path d="M5917 6326 c-8 -19 -68 -26 -91 -10 -24 16 -66 -1 -66 -29 0 -28 -37
-75 -62 -79 -29 -4 -48 -57 -24 -70 18 -10 22 -78 6 -94 -16 -16 9 -64 33 -64
28 0 79 -40 73 -57 -8 -20 55 -47 69 -29 16 20 82 27 95 11 10 -12 16 -12 42
1 18 9 28 22 26 32 -4 25 37 74 58 70 26 -4 44 60 21 74 -20 11 -23 59 -5 87
17 28 -4 71 -34 71 -30 1 -68 33 -68 58 0 13 -10 24 -31 31 -39 14 -36 14 -42
-3z m33 -119 c70 -55 64 -166 -10 -197 -70 -29 -133 -3 -159 63 -17 45 -8 81
29 118 24 24 37 29 77 29 26 0 55 -6 63 -13z"/>
<path d="M6145 5974 c-6 -9 -24 -17 -41 -18 -40 -2 -68 -24 -54 -41 8 -9 3
-21 -20 -43 -33 -33 -39 -59 -15 -68 16 -6 30 -40 27 -65 -3 -19 21 -41 40
-38 23 5 58 -12 58 -27 0 -20 47 -18 58 3 6 9 23 17 43 17 47 2 62 13 55 42
-5 18 0 31 19 48 29 27 32 51 8 64 -9 6 -17 23 -17 43 -2 45 -14 62 -38 56
-23 -7 -58 12 -58 30 0 19 -53 16 -65 -3z m69 -116 c31 -44 9 -88 -43 -88 -34
0 -53 21 -53 55 0 14 5 32 12 40 19 23 66 19 84 -7z"/>
<path d="M7304 5575 c-48 -48 -103 -208 -104 -300 0 -34 -5 -43 -29 -56 -16
-9 -41 -38 -56 -64 -59 -100 -26 -218 77 -269 115 -58 236 -8 277 113 33 99
-22 205 -124 242 -30 11 -35 18 -35 44 0 45 25 129 54 185 39 74 34 105 -17
123 -12 5 -27 -2 -43 -18z"/>
<path d="M8843 3273 c-249 -467 -473 -887 -498 -935 l-47 -88 216 0 216 0 70
140 70 140 428 0 427 0 70 -138 70 -137 218 -3 219 -2 -24 42 c-13 24 -237
445 -498 936 -260 490 -476 892 -480 892 -3 0 -209 -381 -457 -847z m575 -173
c62 -127 112 -233 112 -235 0 -3 -103 -5 -230 -5 -126 0 -230 3 -230 7 0 13
224 463 230 463 4 0 57 -104 118 -230z"/>
<path d="M3850 3443 c0 -677 0 -676 -54 -761 -53 -84 -133 -122 -258 -122 -96
0 -198 63 -253 156 -15 25 -32 43 -38 41 -64 -25 -334 -141 -339 -146 -10 -8
56 -120 100 -172 77 -90 209 -170 342 -206 89 -25 308 -24 400 1 197 54 338
162 424 325 73 140 76 169 76 884 l0 627 -200 0 -200 0 0 -627z"/>
<path d="M4650 3486 c0 -628 2 -659 53 -798 34 -95 82 -171 153 -244 129 -131
293 -204 505 -224 444 -42 786 159 893 525 20 67 21 99 24 698 l3 627 -195 0
-195 0 -3 -602 c-3 -602 -3 -603 -26 -660 -64 -159 -208 -251 -392 -251 -176
0 -319 84 -386 228 -37 80 -44 193 -44 758 l0 527 -195 0 -195 0 0 -584z"/>
<path d="M6700 3161 l0 -911 195 0 195 0 0 285 0 285 138 0 137 0 48 -68 c26
-37 122 -165 215 -284 l167 -217 238 -1 238 0 -120 158 c-67 86 -172 222 -234
302 l-114 144 72 43 c134 78 241 224 281 383 22 87 15 290 -13 370 -64 187
-195 316 -399 392 -58 22 -71 23 -551 26 l-493 3 0 -910z m911 557 c56 -16
113 -69 140 -130 20 -44 24 -70 24 -148 0 -109 -17 -153 -81 -210 -76 -66 -92
-70 -361 -70 l-243 0 0 285 0 285 241 0 c155 0 256 -4 280 -12z"/>
<path d="M3640 1671 c0 -136 2 -161 15 -161 12 0 15 15 15 75 l0 75 45 0 c78
0 120 35 113 95 -5 42 -45 66 -122 72 l-66 6 0 -162z m144 113 c23 -22 20 -71
-3 -84 -11 -5 -40 -10 -65 -10 l-46 0 0 55 0 55 49 0 c32 0 55 -6 65 -16z"/>
<path d="M4140 1671 c0 -136 2 -161 15 -161 12 0 15 15 15 75 l0 75 28 0 c24
0 34 -10 71 -75 23 -41 49 -75 57 -75 20 0 19 1 -27 77 -38 62 -40 68 -24 78
38 21 55 46 55 78 0 57 -27 75 -125 84 l-65 6 0 -162z m142 117 c53 -42 18
-98 -62 -98 l-50 0 0 55 0 55 48 0 c27 0 55 -6 64 -12z"/>
<path d="M4703 1810 c-70 -42 -96 -163 -50 -231 32 -48 100 -82 156 -76 84 9
141 76 141 167 0 68 -27 116 -80 142 -47 24 -126 23 -167 -2z m153 -16 c37
-17 74 -82 74 -127 0 -77 -60 -137 -137 -137 -86 0 -135 51 -135 142 0 59 21
94 73 120 42 22 81 23 125 2z"/>
<path d="M5370 1708 c0 -148 -9 -172 -63 -176 -32 -3 -39 0 -44 17 -6 24 -33
29 -33 7 0 -22 49 -56 82 -56 17 0 39 10 53 25 24 23 25 29 25 165 0 87 -4
140 -10 140 -6 0 -10 -48 -10 -122z"/>
<path d="M5727 1824 c-4 -4 -7 -76 -7 -161 l0 -153 100 0 c60 0 100 4 100 10
0 6 -35 10 -85 10 l-85 0 0 65 0 65 81 0 c60 0 80 3 77 13 -3 8 -31 13 -81 15
l-77 3 0 54 0 55 86 0 c64 0 85 3 82 13 -5 13 -178 23 -191 11z"/>
<path d="M6276 1800 c-68 -60 -82 -151 -35 -227 49 -80 182 -96 238 -30 20 25
-6 31 -35 8 -37 -29 -112 -29 -149 1 -51 40 -68 117 -41 183 28 66 117 94 180
57 43 -25 57 -12 20 17 -20 16 -41 21 -85 21 -51 0 -63 -4 -93 -30z"/>
<path d="M6757 1823 c-17 -16 -3 -23 48 -23 l55 0 0 -145 c0 -122 2 -145 15
-145 13 0 15 23 15 145 l0 145 55 0 c42 0 55 3 55 15 0 12 -20 15 -118 15 -65
0 -122 -3 -125 -7z"/>
<path d="M7610 1815 c0 -12 12 -15 55 -15 l55 0 0 -145 c0 -122 2 -145 15
-145 13 0 15 23 15 145 l0 145 56 0 c40 0 55 3 52 13 -3 8 -40 13 -126 15
-104 2 -122 0 -122 -13z"/>
<path d="M8203 1809 c-47 -30 -77 -98 -71 -160 6 -62 31 -97 88 -126 55 -28
92 -29 145 -3 111 54 119 217 15 287 -44 31 -131 31 -177 2z m153 -14 c25 -10
40 -26 54 -57 50 -110 -8 -208 -123 -208 -40 0 -53 5 -84 34 -34 31 -37 39
-41 97 -3 55 -1 68 19 93 41 52 109 69 175 41z"/>
<path d="M8819 1807 c-45 -30 -69 -80 -69 -143 0 -56 24 -102 73 -138 39 -29
134 -29 174 0 51 38 73 81 73 144 0 67 -26 113 -80 141 -50 27 -128 25 -171
-4z m182 -33 c69 -66 57 -189 -22 -230 -36 -18 -102 -18 -139 1 -61 32 -85
146 -44 203 50 67 149 80 205 26z"/>
<path d="M9387 1823 c-4 -3 -7 -75 -7 -160 l0 -153 90 0 c53 0 90 4 90 10 0 6
-32 10 -75 10 l-75 0 0 150 c0 137 -4 163 -23 143z"/>
</g>
</svg>
